<svg width="17" height="23" viewBox="0 0 17 23" fill="none" xmlns="http://www.w3.org/2000/svg">
<path d="M8.5 5.22727V8.36364L12.75 4.18182L8.5 0V3.13636C3.80375 3.13636 0 6.87909 0 11.5C0 13.1414 0.48875 14.6677 1.3175 15.9536L2.86875 14.4273C2.39062 13.5595 2.125 12.5559 2.125 11.5C2.125 8.03955 4.98313 5.22727 8.5 5.22727ZM15.6825 7.04636L14.1312 8.57273C14.5987 9.45091 14.875 10.4441 14.875 11.5C14.875 14.9605 12.0169 17.7727 8.5 17.7727V14.6364L4.25 18.8182L8.5 23V19.8636C13.1962 19.8636 17 16.1209 17 11.5C17 9.85864 16.5112 8.33227 15.6825 7.04636Z" fill="#A9A9A9"/>
</svg>
